# xmcd
#
# Track frame offsets:
#	150
#	9419
#	23254
#	36011
#	48508
#	57251
#	70670
#	77441
#	90497
#	105484
#	110832
#	127400
#	136767
#	152179
#	161370
#	175070
#	188871
#	207171
#	220581
#	229335
#	244435
#	247316
#	262390
#	289240
#	303519
#	311542
#	322942
#	327751
#
# Disc length: 4440 seconds
#
# Revision: 1
# Processed by: cddbd v1.5.1PL0 Copyright (c) Steve Scherf et al.
# Submitted via: audiograbber 1.83.01
#
DISCID=8a11561c
DTITLE=Wise Guys  - Live
DYEAR=2000
DGENRE=Live Deutsch
TTITLE0=Gedanken Vor Konzertbeginn
TTITLE1=Skandal
TTITLE2=Moderation
TTITLE3=Köln ist einfach Korrekt
TTITLE4=Moderation
TTITLE5=Baby noch einmal
TTITLE6=Moderation
TTITLE7=Wie kann es sein
TTITLE8=Es blieb von unserem Glück nur Dein Parfum zurück
TTITLE9=Moderation
TTITLE10=Goldeneye
TTITLE11=Moderation
TTITLE12=Meine heisse Liebe
TTITLE13=Moderation
TTITLE14=Mädchen lach noch mal
TTITLE15=Root Beer Bag
TTITLE16=Moderation
TTITLE17=Probier's mal mit 'nem Bass
TTITLE18=Moderation
TTITLE19=Nein, Nein, Nein
TTITLE20=Moderation
TTITLE21=Do You Believe (In Kölle Alaaf)
TTITLE22=Moderation
TTITLE23=Verlieben, verloren,...
TTITLE24=Moderation
TTITLE25=Ich will keine A-Capella
TTITLE26=Moderation
TTITLE27=Wenn ich Ens Nit Mih Existiere
EXTD=
EXTT0=
EXTT1=
EXTT2=
EXTT3=
EXTT4=
EXTT5=
EXTT6=
EXTT7=
EXTT8=
EXTT9=
EXTT10=
EXTT11=
EXTT12=
EXTT13=
EXTT14=
EXTT15=
EXTT16=
EXTT17=
EXTT18=
EXTT19=
EXTT20=
EXTT21=
EXTT22=
EXTT23=
EXTT24=
EXTT25=
EXTT26=
EXTT27=
PLAYORDER=
